<svg width="40" height="40" viewBox="0 0 40 40" fill="none" xmlns="http://www.w3.org/2000/svg">
<path d="M0 10C0 4.47715 4.47715 0 10 0H30C35.5228 0 40 4.47715 40 10V30C40 35.5228 35.5228 40 30 40H10C4.47715 40 0 35.5228 0 30V10Z" fill="url(#paint0_linear_1_60)"/>
<path d="M19.1808 12.345C19.2165 12.1538 19.318 11.9812 19.4676 11.8569C19.6172 11.7327 19.8055 11.6647 20 11.6647C20.1945 11.6647 20.3828 11.7327 20.5324 11.8569C20.682 11.9812 20.7835 12.1538 20.8192 12.345L21.695 16.9767C21.7572 17.306 21.9172 17.6088 22.1542 17.8458C22.3912 18.0828 22.694 18.2428 23.0233 18.305L27.655 19.1808C27.8462 19.2165 28.0188 19.318 28.1431 19.4676C28.2673 19.6172 28.3353 19.8055 28.3353 20C28.3353 20.1945 28.2673 20.3828 28.1431 20.5324C28.0188 20.682 27.8462 20.7835 27.655 20.8192L23.0233 21.695C22.694 21.7572 22.3912 21.9172 22.1542 22.1542C21.9172 22.3912 21.7572 22.694 21.695 23.0233L20.8192 27.655C20.7835 27.8462 20.682 28.0188 20.5324 28.1431C20.3828 28.2673 20.1945 28.3353 20 28.3353C19.8055 28.3353 19.6172 28.2673 19.4676 28.1431C19.318 28.0188 19.2165 27.8462 19.1808 27.655L18.305 23.0233C18.2428 22.694 18.0828 22.3912 17.8458 22.1542C17.6088 21.9172 17.306 21.7572 16.9767 21.695L12.345 20.8192C12.1538 20.7835 11.9812 20.682 11.8569 20.5324C11.7327 20.3828 11.6647 20.1945 11.6647 20C11.6647 19.8055 11.7327 19.6172 11.8569 19.4676C11.9812 19.318 12.1538 19.2165 12.345 19.1808L16.9767 18.305C17.306 18.2428 17.6088 18.0828 17.8458 17.8458C18.0828 17.6088 18.2428 17.306 18.305 16.9767L19.1808 12.345Z" stroke="white" stroke-width="1.66667" stroke-linecap="round" stroke-linejoin="round"/>
<path d="M26.6666 11.6666V15" stroke="white" stroke-width="1.66667" stroke-linecap="round" stroke-linejoin="round"/>
<path d="M28.3333 13.3334H25" stroke="white" stroke-width="1.66667" stroke-linecap="round" stroke-linejoin="round"/>
<path d="M13.3333 28.3333C14.2538 28.3333 15 27.5871 15 26.6667C15 25.7462 14.2538 25 13.3333 25C12.4128 25 11.6666 25.7462 11.6666 26.6667C11.6666 27.5871 12.4128 28.3333 13.3333 28.3333Z" stroke="white" stroke-width="1.66667" stroke-linecap="round" stroke-linejoin="round"/>
<defs>
<linearGradient id="paint0_linear_1_60" x1="20" y1="0" x2="20" y2="40" gradientUnits="userSpaceOnUse">
<stop stop-color="#2F7AE5"/>
<stop offset="1" stop-color="#3E88EF"/>
</linearGradient>
</defs>
</svg>
