<svg width="40" height="40" viewBox="0 0 40 40" fill="none" xmlns="http://www.w3.org/2000/svg">
<path d="M0 10C0 4.47715 4.47715 0 10 0H30C35.5228 0 40 4.47715 40 10V30C40 35.5228 35.5228 40 30 40H10C4.47715 40 0 35.5228 0 30V10Z" fill="url(#paint0_linear_1_36)"/>
<path d="M20 28.3333C24.6024 28.3333 28.3334 24.6023 28.3334 20C28.3334 15.3976 24.6024 11.6666 20 11.6666C15.3976 11.6666 11.6667 15.3976 11.6667 20C11.6667 24.6023 15.3976 28.3333 20 28.3333Z" stroke="white" stroke-width="1.66667" stroke-linecap="round" stroke-linejoin="round"/>
<path d="M20 25C22.7614 25 25 22.7614 25 20C25 17.2386 22.7614 15 20 15C17.2386 15 15 17.2386 15 20C15 22.7614 17.2386 25 20 25Z" stroke="white" stroke-width="1.66667" stroke-linecap="round" stroke-linejoin="round"/>
<path d="M20 21.6667C20.9205 21.6667 21.6666 20.9205 21.6666 20C21.6666 19.0796 20.9205 18.3334 20 18.3334C19.0795 18.3334 18.3333 19.0796 18.3333 20C18.3333 20.9205 19.0795 21.6667 20 21.6667Z" stroke="white" stroke-width="1.66667" stroke-linecap="round" stroke-linejoin="round"/>
<defs>
<linearGradient id="paint0_linear_1_36" x1="20" y1="0" x2="20" y2="40" gradientUnits="userSpaceOnUse">
<stop stop-color="#2F7AE5"/>
<stop offset="1" stop-color="#3E88EF"/>
</linearGradient>
</defs>
</svg>
