<svg width="48" height="48" viewBox="0 0 48 48" fill="none" xmlns="http://www.w3.org/2000/svg">
<path d="M0 16.0017C0 7.16423 7.16422 0 16.0017 0H31.9982C40.8357 0 48 7.16422 48 16.0017V31.9982C48 40.8357 40.8358 48 31.9982 48H16.0017C7.16423 48 0 40.8358 0 31.9982V16.0017Z" fill="#1D63DC" fill-opacity="0.08"/>
<path d="M23.9956 19.0011V32.9985" stroke="#1D63DC" stroke-width="1.99942" stroke-linecap="round" stroke-linejoin="round"/>
<path d="M14.9973 29.9989C14.7321 29.9989 14.4778 29.8936 14.2903 29.7061C14.1028 29.5186 13.9975 29.2643 13.9975 28.9991V16.0014C13.9975 15.7363 14.1028 15.482 14.2903 15.2945C14.4778 15.107 14.7321 15.0016 14.9973 15.0016H19.9964C21.0571 15.0016 22.0743 15.423 22.8243 16.173C23.5743 16.923 23.9957 17.9402 23.9957 19.0009C23.9957 17.9402 24.417 16.923 25.167 16.173C25.917 15.423 26.9343 15.0016 27.9949 15.0016H32.994C33.2592 15.0016 33.5135 15.107 33.701 15.2945C33.8885 15.482 33.9939 15.7363 33.9939 16.0014V28.9991C33.9939 29.2643 33.8885 29.5186 33.701 29.7061C33.5135 29.8936 33.2592 29.9989 32.994 29.9989H26.9951C26.1996 29.9989 25.4367 30.3149 24.8742 30.8774C24.3117 31.4399 23.9957 32.2029 23.9957 32.9984C23.9957 32.2029 23.6797 31.4399 23.1172 30.8774C22.5546 30.3149 21.7917 29.9989 20.9962 29.9989H14.9973Z" stroke="#1D63DC" stroke-width="1.99942" stroke-linecap="round" stroke-linejoin="round"/>
</svg>
