<svg width="48" height="48" viewBox="0 0 48 48" fill="none" xmlns="http://www.w3.org/2000/svg">
<path d="M0 16.0017C0 7.16423 7.16422 0 16.0017 0H31.9982C40.8358 0 48 7.16422 48 16.0017V31.9982C48 40.8358 40.8358 48 31.9983 48H16.0017C7.16423 48 0 40.8358 0 31.9983V16.0017Z" fill="#1D63DC" fill-opacity="0.08"/>
<path d="M33.4139 22.9222C33.5929 22.8432 33.7448 22.7135 33.8508 22.549C33.9568 22.3846 34.0122 22.1927 34.0102 21.9971C34.0081 21.8014 33.9488 21.6107 33.8394 21.4485C33.7301 21.2863 33.5755 21.1597 33.395 21.0845L24.8255 17.1812C24.565 17.0624 24.282 17.0009 23.9957 17.0009C23.7093 17.0009 23.4263 17.0624 23.1658 17.1812L14.5974 21.0805C14.4194 21.1584 14.2679 21.2866 14.1616 21.4492C14.0553 21.6119 13.9986 21.802 13.9986 21.9963C13.9986 22.1906 14.0553 22.3808 14.1616 22.5434C14.2679 22.7061 14.4194 22.8342 14.5974 22.9122L23.1658 26.8194C23.4263 26.9383 23.7093 26.9998 23.9957 26.9998C24.282 26.9998 24.565 26.9383 24.8255 26.8194L33.4139 22.9222Z" stroke="#1D63DC" stroke-width="1.99942" stroke-linecap="round" stroke-linejoin="round"/>
<path d="M33.9939 22.0004V27.9993" stroke="#1D63DC" stroke-width="1.99942" stroke-linecap="round" stroke-linejoin="round"/>
<path d="M17.9967 24.5002V27.9996C17.9967 28.7951 18.6288 29.558 19.7538 30.1205C20.8788 30.683 22.4047 30.999 23.9957 30.999C25.5867 30.999 27.1125 30.683 28.2375 30.1205C29.3626 29.558 29.9946 28.7951 29.9946 27.9996V24.5002" stroke="#1D63DC" stroke-width="1.99942" stroke-linecap="round" stroke-linejoin="round"/>
</svg>
