<svg width="16" height="16" viewBox="0 0 16 16" fill="none" xmlns="http://www.w3.org/2000/svg">
<path d="M10.6666 5.33332C11.7275 5.33332 12.7449 5.75475 13.495 6.50489C14.2452 7.25504 14.6666 8.27245 14.6666 9.33332V14H11.9999V9.33332C11.9999 8.9797 11.8595 8.64056 11.6094 8.39051C11.3594 8.14046 11.0202 7.99999 10.6666 7.99999C10.313 7.99999 9.97384 8.14046 9.72379 8.39051C9.47374 8.64056 9.33327 8.9797 9.33327 9.33332V14H6.66661V9.33332C6.66661 8.27245 7.08803 7.25504 7.83818 6.50489C8.58832 5.75475 9.60573 5.33332 10.6666 5.33332Z" stroke="white" stroke-width="1.33319" stroke-linecap="round" stroke-linejoin="round"/>
<path d="M3.99993 5.99999H1.33327V14H3.99993V5.99999Z" stroke="white" stroke-width="1.33319" stroke-linecap="round" stroke-linejoin="round"/>
<path d="M2.6666 3.99999C3.40298 3.99999 3.99993 3.40304 3.99993 2.66666C3.99993 1.93028 3.40298 1.33333 2.6666 1.33333C1.93022 1.33333 1.33327 1.93028 1.33327 2.66666C1.33327 3.40304 1.93022 3.99999 2.6666 3.99999Z" stroke="white" stroke-width="1.33319" stroke-linecap="round" stroke-linejoin="round"/>
</svg>
