<svg width="16" height="16" viewBox="0 0 16 16" fill="none" xmlns="http://www.w3.org/2000/svg">
<g clip-path="url(#clip0_1_169)">
<path d="M13.3333 6.66672C13.3333 9.99538 9.64065 13.462 8.40065 14.5327C8.28513 14.6196 8.14452 14.6665 7.99998 14.6665C7.85545 14.6665 7.71483 14.6196 7.59932 14.5327C6.35932 13.462 2.66666 9.99538 2.66666 6.66672C2.66666 5.25223 3.22856 3.89568 4.22875 2.89549C5.22895 1.8953 6.5855 1.33339 7.99998 1.33339C9.41447 1.33339 10.771 1.8953 11.7712 2.89549C12.7714 3.89568 13.3333 5.25223 13.3333 6.66672Z" stroke="#45556C" stroke-width="1.33319" stroke-linecap="round" stroke-linejoin="round"/>
<path d="M7.99999 8.66675C9.10456 8.66675 9.99999 7.77132 9.99999 6.66675C9.99999 5.56219 9.10456 4.66676 7.99999 4.66676C6.89542 4.66676 5.99999 5.56219 5.99999 6.66675C5.99999 7.77132 6.89542 8.66675 7.99999 8.66675Z" stroke="#45556C" stroke-width="1.33319" stroke-linecap="round" stroke-linejoin="round"/>
</g>
<defs>
<clipPath id="clip0_1_169">
<rect width="15.9983" height="15.9983" fill="white"/>
</clipPath>
</defs>
</svg>
