<svg width="16" height="16" viewBox="0 0 16 16" fill="none" xmlns="http://www.w3.org/2000/svg">
<g clip-path="url(#clip0_1_592)">
<path d="M14.5339 6.66679C14.8384 8.16099 14.6214 9.7144 13.9192 11.068C13.2169 12.4216 12.0719 13.4935 10.675 14.105C9.27804 14.7165 7.71371 14.8306 6.24282 14.4284C4.77194 14.0261 3.48342 13.1317 2.59215 11.8944C1.70087 10.6571 1.26071 9.15161 1.34507 7.62905C1.42944 6.10648 2.03322 4.65886 3.05573 3.52758C4.07824 2.3963 5.45768 1.64976 6.964 1.41244C8.47032 1.17512 10.0125 1.46138 11.3333 2.22347" stroke="#2F7AE5" stroke-width="1.33319" stroke-linecap="round" stroke-linejoin="round"/>
<path d="M5.99997 7.33345L7.99997 9.33344L14.6666 2.66679" stroke="#2F7AE5" stroke-width="1.33319" stroke-linecap="round" stroke-linejoin="round"/>
</g>
<defs>
<clipPath id="clip0_1_592">
<rect width="15.9983" height="15.9983" fill="white"/>
</clipPath>
</defs>
</svg>
