<svg width="20" height="20" viewBox="0 0 20 20" fill="none" xmlns="http://www.w3.org/2000/svg">
<path d="M13.3333 16.6665V3.33317C13.3333 2.89114 13.1577 2.46722 12.8452 2.15466C12.5326 1.8421 12.1087 1.6665 11.6667 1.6665H8.33333C7.8913 1.6665 7.46738 1.8421 7.15482 2.15466C6.84226 2.46722 6.66666 2.89114 6.66666 3.33317V16.6665" stroke="#2F7AE5" stroke-width="1.66667" stroke-linecap="round" stroke-linejoin="round"/>
<path d="M16.6667 5H3.33333C2.41286 5 1.66666 5.74619 1.66666 6.66667V15C1.66666 15.9205 2.41286 16.6667 3.33333 16.6667H16.6667C17.5871 16.6667 18.3333 15.9205 18.3333 15V6.66667C18.3333 5.74619 17.5871 5 16.6667 5Z" stroke="#2F7AE5" stroke-width="1.66667" stroke-linecap="round" stroke-linejoin="round"/>
</svg>
