<svg width="16" height="16" viewBox="0 0 16 16" fill="none" xmlns="http://www.w3.org/2000/svg">
<path d="M13.3333 6.6666C13.3333 9.99526 9.64065 13.4619 8.40065 14.5326C8.28513 14.6194 8.14452 14.6664 7.99998 14.6664C7.85545 14.6664 7.71483 14.6194 7.59932 14.5326C6.35932 13.4619 2.66666 9.99526 2.66666 6.6666C2.66666 5.25211 3.22856 3.89556 4.22875 2.89537C5.22895 1.89517 6.5855 1.33327 7.99998 1.33327C9.41447 1.33327 10.771 1.89517 11.7712 2.89537C12.7714 3.89556 13.3333 5.25211 13.3333 6.6666Z" stroke="#45556C" stroke-width="1.33319" stroke-linecap="round" stroke-linejoin="round"/>
<path d="M7.99999 8.66663C9.10456 8.66663 9.99999 7.7712 9.99999 6.66663C9.99999 5.56207 9.10456 4.66664 7.99999 4.66664C6.89542 4.66664 5.99999 5.56207 5.99999 6.66663C5.99999 7.7712 6.89542 8.66663 7.99999 8.66663Z" stroke="#45556C" stroke-width="1.33319" stroke-linecap="round" stroke-linejoin="round"/>
</svg>
