<svg width="20" height="20" viewBox="0 0 20 20" fill="none" xmlns="http://www.w3.org/2000/svg">
<path d="M8.33334 10H11.6667" stroke="#155DFC" stroke-width="1.66667" stroke-linecap="round" stroke-linejoin="round"/>
<path d="M8.33334 6.6665H11.6667" stroke="#155DFC" stroke-width="1.66667" stroke-linecap="round" stroke-linejoin="round"/>
<path d="M11.6667 17.5002V15.0002C11.6667 14.5581 11.4911 14.1342 11.1785 13.8217C10.866 13.5091 10.442 13.3335 10 13.3335C9.55798 13.3335 9.13405 13.5091 8.82149 13.8217C8.50893 14.1342 8.33334 14.5581 8.33334 15.0002V17.5002" stroke="#155DFC" stroke-width="1.66667" stroke-linecap="round" stroke-linejoin="round"/>
<path d="M5 8.3335H3.33333C2.8913 8.3335 2.46738 8.50909 2.15482 8.82165C1.84226 9.13421 1.66666 9.55814 1.66666 10.0002V15.8335C1.66666 16.2755 1.84226 16.6994 2.15482 17.012C2.46738 17.3246 2.8913 17.5002 3.33333 17.5002H16.6667C17.1087 17.5002 17.5326 17.3246 17.8452 17.012C18.1577 16.6994 18.3333 16.2755 18.3333 15.8335V7.50016C18.3333 7.05814 18.1577 6.63421 17.8452 6.32165C17.5326 6.00909 17.1087 5.8335 16.6667 5.8335H15" stroke="#155DFC" stroke-width="1.66667" stroke-linecap="round" stroke-linejoin="round"/>
<path d="M5 17.5V4.16667C5 3.72464 5.17559 3.30072 5.48816 2.98816C5.80072 2.67559 6.22464 2.5 6.66667 2.5H13.3333C13.7754 2.5 14.1993 2.67559 14.5118 2.98816C14.8244 3.30072 15 3.72464 15 4.16667V17.5" stroke="#155DFC" stroke-width="1.66667" stroke-linecap="round" stroke-linejoin="round"/>
</svg>
